<?xml version="1.0" encoding="utf-8"?>
<!-- Generator: Adobe Illustrator 24.1.0, SVG Export Plug-In . SVG Version: 6.00 Build 0)  -->
<svg version="1.1" id="svg2.svg4773" xmlns="http://www.w3.org/2000/svg" xmlns:xlink="http://www.w3.org/1999/xlink" x="0px"
	 y="0px" viewBox="0 0 750 260" style="enable-background:new 0 0 750 260;" xml:space="preserve">
<style type="text/css">
	.st0{clip-path:url(#SVGID_2_);}
	.st1{fill:none;stroke:#000000;stroke-width:2.160941e-03;stroke-miterlimit:1.228;}
	.st2{fill:none;stroke:#000000;stroke-width:1.728150e-03;stroke-miterlimit:1.228;}
	.st3{clip-path:url(#SVGID_4_);enable-background:new    ;}
	.st4{font-family:'ArialMT';}
	.st5{font-size:13.7532px;}
	.st6{clip-path:url(#SVGID_6_);}
	.st7{clip-path:url(#SVGID_8_);enable-background:new    ;}
	.st8{fill:none;}
	.st9{font-family:'PingFangHK-Regular-B5pc-H';}
	.st10{font-size:12.6936px;}
	.st11{fill:none;stroke:#000000;stroke-width:1.0578;stroke-miterlimit:1.5338;}
	.st12{clip-path:url(#SVGID_10_);fill:#FFFFFF;}
	.st13{clip-path:url(#SVGID_12_);fill:none;stroke:#000000;stroke-width:1.252;stroke-miterlimit:1.8155;}
	.st14{clip-path:url(#SVGID_14_);fill:#FFFFFF;}
	.st15{clip-path:url(#SVGID_16_);enable-background:new    ;}
	.st16{font-size:12.6954px;}
	.st17{clip-path:url(#SVGID_18_);fill:none;stroke:#000000;stroke-width:1.252;stroke-miterlimit:1.8155;}
	.st18{clip-path:url(#SVGID_20_);fill:#FFFFFF;}
	.st19{clip-path:url(#SVGID_22_);enable-background:new    ;}
	.st20{clip-path:url(#SVGID_24_);fill:none;stroke:#000000;stroke-width:1.252;stroke-miterlimit:1.8155;}
	.st21{clip-path:url(#SVGID_26_);fill:#FFFFFF;}
	.st22{clip-path:url(#SVGID_28_);enable-background:new    ;}
	.st23{clip-path:url(#SVGID_30_);fill:none;stroke:#000000;stroke-width:1.252;stroke-miterlimit:1.8155;}
	.st24{clip-path:url(#SVGID_32_);fill:#FFFFFF;}
	.st25{clip-path:url(#SVGID_34_);enable-background:new    ;}
	.st26{clip-path:url(#SVGID_36_);fill:none;stroke:#000000;stroke-width:1.252;stroke-miterlimit:1.8155;}
	.st27{clip-path:url(#SVGID_38_);fill:#FFFFFF;}
	.st28{clip-path:url(#SVGID_40_);enable-background:new    ;}
	.st29{clip-path:url(#SVGID_42_);fill:none;stroke:#000000;stroke-width:1.252;stroke-miterlimit:1.8155;}
	.st30{clip-path:url(#SVGID_44_);fill:#FFFFFF;}
	.st31{clip-path:url(#SVGID_46_);enable-background:new    ;}
	.st32{clip-path:url(#SVGID_48_);fill:none;stroke:#000000;stroke-width:1.252;stroke-miterlimit:1.8155;}
	.st33{clip-path:url(#SVGID_50_);fill:#FFFFFF;}
	.st34{clip-path:url(#SVGID_52_);enable-background:new    ;}
	.st35{clip-path:url(#SVGID_54_);enable-background:new    ;}
	.st36{clip-path:url(#SVGID_56_);fill:none;stroke:#000000;stroke-width:1.252;stroke-miterlimit:1.8155;}
	.st37{clip-path:url(#SVGID_58_);fill:#FFFFFF;}
	.st38{clip-path:url(#SVGID_60_);enable-background:new    ;}
	.st39{clip-path:url(#SVGID_62_);fill:none;stroke:#000000;stroke-width:1.252;stroke-miterlimit:1.8155;}
	.st40{clip-path:url(#SVGID_64_);fill:#FFFFFF;}
	.st41{clip-path:url(#SVGID_66_);enable-background:new    ;}
	.st42{clip-path:url(#SVGID_68_);fill:none;stroke:#000000;stroke-width:1.0578;stroke-miterlimit:1.5338;}
	.st43{clip-path:url(#SVGID_70_);fill:#FFFFFF;}
	.st44{clip-path:url(#SVGID_72_);}
	.st45{clip-path:url(#SVGID_74_);fill:#FFFFFF;}
	.st46{clip-path:url(#SVGID_76_);enable-background:new    ;}
	.st47{clip-path:url(#SVGID_78_);enable-background:new    ;}
	.st48{clip-path:url(#SVGID_80_);fill:none;stroke:#000000;stroke-width:1.0578;stroke-miterlimit:1.5338;}
	.st49{clip-path:url(#SVGID_82_);}
	.st50{clip-path:url(#SVGID_84_);fill:none;stroke:#000000;stroke-width:1.0578;stroke-miterlimit:1.5338;}
	.st51{clip-path:url(#SVGID_86_);}
	.st52{clip-path:url(#SVGID_88_);fill:none;stroke:#000000;stroke-width:1.0578;stroke-miterlimit:1.5338;}
	.st53{clip-path:url(#SVGID_90_);fill:none;stroke:#000000;stroke-width:1.0578;stroke-miterlimit:1.5338;}
	.st54{clip-path:url(#SVGID_92_);}
	.st55{clip-path:url(#SVGID_94_);}
	.st56{font-size:9px;}
	.st57{fill:none;stroke:#000000;stroke-width:1.1666;stroke-miterlimit:10;}
	.st58{fill:none;stroke:#000000;stroke-width:0.9333;stroke-miterlimit:10;}
	.st59{fill:#FFFFFF;}
</style>
<g transform="matrix(0.1228,0,0,0.1237,15.702,15.7857)">
	<g>
		<g>
			<g>
				<g>
					<defs>
						<rect id="SVGID_1_" x="2925.5" y="923.1" width="1.4" height="0.5"/>
					</defs>
					<clipPath id="SVGID_2_">
						<use xlink:href="#SVGID_1_"  style="overflow:visible;"/>
					</clipPath>
					<g class="st0">
						<g id="svg1.layer1">
							<ellipse id="svg1.circle3045" class="st1" cx="217.5" cy="156.5" rx="14.1" ry="14.2"/>
							<path id="svg1.path3047" class="st1" d="M24.4,407.9c37.9-106.7,155.1-162.5,261.8-124.6c58.2,20.7,103.9,66.4,124.6,124.6"
								/>
							<rect id="svg1.rect4325" x="6.5" y="7.9" class="st2" width="416.9" height="404.2"/>
						</g>
					</g>
				</g>
			</g>
		</g>
	</g>
</g>
<g transform="matrix(1.0578,0,0,1.0578,-320.522,-386.107)">
	<g>
		<g>
			<g>
				<g>
					<defs>
						<rect id="SVGID_3_" x="213.6" y="334.1" width="887.8" height="307.7"/>
					</defs>
					<clipPath id="SVGID_4_">
						<use xlink:href="#SVGID_3_"  style="overflow:visible;"/>
					</clipPath>
					<g class="st3">
						<text transform="matrix(0.9454 0 0 0.9454 327.9863 446.6289)" class="st4 st5">User</text>
					</g>
				</g>
			</g>
		</g>
	</g>
</g>
<g transform="matrix(0.1228,0,0,0.1237,15.702,109.298)">
	<g>
		<g>
			<g>
				<g>
					<defs>
						<rect id="SVGID_5_" x="2925.5" y="167.2" width="1.4" height="0.5"/>
					</defs>
					<clipPath id="SVGID_6_">
						<use xlink:href="#SVGID_5_"  style="overflow:visible;"/>
					</clipPath>
					<g class="st6">
						<g id="svg2.layer1">
							<ellipse id="svg2.circle3045" class="st1" cx="217.5" cy="156.5" rx="14.1" ry="14.2"/>
							<path id="svg2.path3047" class="st1" d="M24.4,407.9c37.9-106.7,155.1-162.5,261.8-124.6c58.2,20.7,103.9,66.4,124.6,124.6"
								/>
							<rect id="svg2.rect4325" x="6.5" y="7.9" class="st2" width="416.9" height="404.2"/>
						</g>
					</g>
				</g>
			</g>
		</g>
	</g>
</g>
<g transform="matrix(1.0578,0,0,1.0578,-320.522,-386.107)">
	<g>
		<g>
			<g>
				<g>
					<defs>
						<rect id="SVGID_7_" x="213.6" y="334.1" width="887.8" height="307.7"/>
					</defs>
					<clipPath id="SVGID_8_">
						<use xlink:href="#SVGID_7_"  style="overflow:visible;"/>
					</clipPath>
					<g class="st7">
						<text transform="matrix(0.9454 0 0 0.9454 327.9863 535.0286)" class="st4 st5">User</text>
					</g>
				</g>
			</g>
		</g>
	</g>
</g>
<rect y="0" class="st8" width="750" height="260"/>
<text transform="matrix(1 0 0 1 229.9337 45.4257)" class="st9 st10">登陆节点</text>
<rect x="2.6" y="-42.8" class="st8" width="750" height="260"/>
<rect x="196.9" y="21.4" class="st11" width="129.3" height="39.7"/>
<g transform="matrix(1.0578,0,0,1.0578,-320.522,-386.107)">
	<g>
		<g>
			<g>
				<g>
					<defs>
						<rect id="SVGID_9_" x="213.6" y="334.1" width="887.8" height="307.7"/>
					</defs>
					<clipPath id="SVGID_10_">
						<use xlink:href="#SVGID_9_"  style="overflow:visible;"/>
					</clipPath>
					<rect x="692.6" y="431.3" class="st12" width="122.3" height="37.5"/>
				</g>
			</g>
		</g>
	</g>
</g>
<g transform="matrix(1.0578,0,0,1.0578,-320.522,-386.107)">
	<g>
		<g>
			<g>
				<g>
					<defs>
						<rect id="SVGID_11_" x="213.6" y="334.1" width="887.8" height="307.7"/>
					</defs>
					<clipPath id="SVGID_12_">
						<use xlink:href="#SVGID_11_"  style="overflow:visible;"/>
					</clipPath>
					<rect x="692.6" y="431.3" class="st13" width="122.3" height="37.5"/>
				</g>
			</g>
		</g>
	</g>
</g>
<g transform="matrix(1.0578,0,0,1.0578,-320.522,-386.107)">
	<g>
		<g>
			<g>
				<g>
					<defs>
						<rect id="SVGID_13_" x="213.6" y="334.1" width="887.8" height="307.7"/>
					</defs>
					<clipPath id="SVGID_14_">
						<use xlink:href="#SVGID_13_"  style="overflow:visible;"/>
					</clipPath>
					<rect x="522" y="542.8" class="st14" width="122.3" height="37.5"/>
				</g>
			</g>
		</g>
	</g>
</g>
<g transform="matrix(1.0578,0,0,1.0578,-320.522,-386.107)">
	<g>
		<g>
			<g>
				<g>
					<defs>
						<rect id="SVGID_15_" x="213.6" y="334.1" width="887.8" height="307.7"/>
					</defs>
					<clipPath id="SVGID_16_">
						<use xlink:href="#SVGID_15_"  style="overflow:visible;"/>
					</clipPath>
					<g class="st15">
						<text transform="matrix(0.9454 0 0 0.9454 538.1992 565.666)" class="st4 st16">Compute Node</text>
					</g>
				</g>
			</g>
		</g>
	</g>
	<g>
		<g>
			<g>
				<g>
					<defs>
						<rect id="SVGID_17_" x="213.6" y="334.1" width="887.8" height="307.7"/>
					</defs>
					<clipPath id="SVGID_18_">
						<use xlink:href="#SVGID_17_"  style="overflow:visible;"/>
					</clipPath>
					<rect x="522" y="542.8" class="st17" width="122.3" height="37.5"/>
				</g>
			</g>
		</g>
	</g>
</g>
<g transform="matrix(1.0578,0,0,1.0578,-320.522,-386.107)">
	<g>
		<g>
			<g>
				<g>
					<defs>
						<rect id="SVGID_19_" x="213.6" y="334.1" width="887.8" height="307.7"/>
					</defs>
					<clipPath id="SVGID_20_">
						<use xlink:href="#SVGID_19_"  style="overflow:visible;"/>
					</clipPath>
					<rect x="863.3" y="542.8" class="st18" width="122.3" height="37.5"/>
				</g>
			</g>
		</g>
	</g>
</g>
<g transform="matrix(1.0578,0,0,1.0578,-320.522,-386.107)">
	<g>
		<g>
			<g>
				<g>
					<defs>
						<rect id="SVGID_21_" x="213.6" y="334.1" width="887.8" height="307.7"/>
					</defs>
					<clipPath id="SVGID_22_">
						<use xlink:href="#SVGID_21_"  style="overflow:visible;"/>
					</clipPath>
					<g class="st19">
						<text transform="matrix(0.9454 0 0 0.9454 879.4496 565.666)" class="st4 st16">Compute Node</text>
					</g>
				</g>
			</g>
		</g>
	</g>
	<g>
		<g>
			<g>
				<g>
					<defs>
						<rect id="SVGID_23_" x="213.6" y="334.1" width="887.8" height="307.7"/>
					</defs>
					<clipPath id="SVGID_24_">
						<use xlink:href="#SVGID_23_"  style="overflow:visible;"/>
					</clipPath>
					<rect x="863.3" y="542.8" class="st20" width="122.3" height="37.5"/>
				</g>
			</g>
		</g>
	</g>
</g>
<g transform="matrix(1.0578,0,0,1.0578,-320.522,-386.107)">
	<g>
		<g>
			<g>
				<g>
					<defs>
						<rect id="SVGID_25_" x="213.6" y="334.1" width="887.8" height="307.7"/>
					</defs>
					<clipPath id="SVGID_26_">
						<use xlink:href="#SVGID_25_"  style="overflow:visible;"/>
					</clipPath>
					<rect x="692.6" y="542.8" class="st21" width="122.3" height="37.5"/>
				</g>
			</g>
		</g>
	</g>
</g>
<g transform="matrix(1.0578,0,0,1.0578,-320.522,-386.107)">
	<g>
		<g>
			<g>
				<g>
					<defs>
						<rect id="SVGID_27_" x="213.6" y="334.1" width="887.8" height="307.7"/>
					</defs>
					<clipPath id="SVGID_28_">
						<use xlink:href="#SVGID_27_"  style="overflow:visible;"/>
					</clipPath>
					<g class="st22">
						<text transform="matrix(0.9454 0 0 0.9454 708.8235 565.666)" class="st4 st16">Compute Node</text>
					</g>
				</g>
			</g>
		</g>
	</g>
	<g>
		<g>
			<g>
				<g>
					<defs>
						<rect id="SVGID_29_" x="213.6" y="334.1" width="887.8" height="307.7"/>
					</defs>
					<clipPath id="SVGID_30_">
						<use xlink:href="#SVGID_29_"  style="overflow:visible;"/>
					</clipPath>
					<rect x="692.6" y="542.8" class="st23" width="122.3" height="37.5"/>
				</g>
			</g>
		</g>
	</g>
</g>
<g transform="matrix(1.0578,0,0,1.0578,-320.522,-386.107)">
	<g>
		<g>
			<g>
				<g>
					<defs>
						<rect id="SVGID_31_" x="213.6" y="334.1" width="887.8" height="307.7"/>
					</defs>
					<clipPath id="SVGID_32_">
						<use xlink:href="#SVGID_31_"  style="overflow:visible;"/>
					</clipPath>
					<rect x="527.6" y="551.2" class="st24" width="122.3" height="37.5"/>
				</g>
			</g>
		</g>
	</g>
</g>
<g transform="matrix(1.0578,0,0,1.0578,-320.522,-386.107)">
	<g>
		<g>
			<g>
				<g>
					<defs>
						<rect id="SVGID_33_" x="213.6" y="334.1" width="887.8" height="307.7"/>
					</defs>
					<clipPath id="SVGID_34_">
						<use xlink:href="#SVGID_33_"  style="overflow:visible;"/>
					</clipPath>
					<g class="st25">
						<text transform="matrix(0.9454 0 0 0.9454 543.8243 574.1558)" class="st4 st16">Compute Node</text>
					</g>
				</g>
			</g>
		</g>
	</g>
	<g>
		<g>
			<g>
				<g>
					<defs>
						<rect id="SVGID_35_" x="213.6" y="334.1" width="887.8" height="307.7"/>
					</defs>
					<clipPath id="SVGID_36_">
						<use xlink:href="#SVGID_35_"  style="overflow:visible;"/>
					</clipPath>
					<rect x="527.6" y="551.2" class="st26" width="122.3" height="37.5"/>
				</g>
			</g>
		</g>
	</g>
</g>
<g transform="matrix(1.0578,0,0,1.0578,-320.522,-386.107)">
	<g>
		<g>
			<g>
				<g>
					<defs>
						<rect id="SVGID_37_" x="213.6" y="334.1" width="887.8" height="307.7"/>
					</defs>
					<clipPath id="SVGID_38_">
						<use xlink:href="#SVGID_37_"  style="overflow:visible;"/>
					</clipPath>
					<rect x="868.9" y="551.2" class="st27" width="122.3" height="37.5"/>
				</g>
			</g>
		</g>
	</g>
</g>
<g transform="matrix(1.0578,0,0,1.0578,-320.522,-386.107)">
	<g>
		<g>
			<g>
				<g>
					<defs>
						<rect id="SVGID_39_" x="213.6" y="334.1" width="887.8" height="307.7"/>
					</defs>
					<clipPath id="SVGID_40_">
						<use xlink:href="#SVGID_39_"  style="overflow:visible;"/>
					</clipPath>
					<g class="st28">
						<text transform="matrix(0.9454 0 0 0.9454 885.0737 574.1558)" class="st4 st16">Compute Node</text>
					</g>
				</g>
			</g>
		</g>
	</g>
	<g>
		<g>
			<g>
				<g>
					<defs>
						<rect id="SVGID_41_" x="213.6" y="334.1" width="887.8" height="307.7"/>
					</defs>
					<clipPath id="SVGID_42_">
						<use xlink:href="#SVGID_41_"  style="overflow:visible;"/>
					</clipPath>
					<rect x="868.9" y="551.2" class="st29" width="122.3" height="37.5"/>
				</g>
			</g>
		</g>
	</g>
</g>
<g transform="matrix(1.0578,0,0,1.0578,-320.522,-386.107)">
	<g>
		<g>
			<g>
				<g>
					<defs>
						<rect id="SVGID_43_" x="213.6" y="334.1" width="887.8" height="307.7"/>
					</defs>
					<clipPath id="SVGID_44_">
						<use xlink:href="#SVGID_43_"  style="overflow:visible;"/>
					</clipPath>
					<rect x="698.3" y="551.2" class="st30" width="122.3" height="37.5"/>
				</g>
			</g>
		</g>
	</g>
</g>
<g transform="matrix(1.0578,0,0,1.0578,-320.522,-386.107)">
	<g>
		<g>
			<g>
				<g>
					<defs>
						<rect id="SVGID_45_" x="213.6" y="334.1" width="887.8" height="307.7"/>
					</defs>
					<clipPath id="SVGID_46_">
						<use xlink:href="#SVGID_45_"  style="overflow:visible;"/>
					</clipPath>
					<g class="st31">
						<text transform="matrix(0.9454 0 0 0.9454 714.4476 574.1558)" class="st4 st16">Compute Node</text>
					</g>
				</g>
			</g>
		</g>
	</g>
	<g>
		<g>
			<g>
				<g>
					<defs>
						<rect id="SVGID_47_" x="213.6" y="334.1" width="887.8" height="307.7"/>
					</defs>
					<clipPath id="SVGID_48_">
						<use xlink:href="#SVGID_47_"  style="overflow:visible;"/>
					</clipPath>
					<rect x="698.3" y="551.2" class="st32" width="122.3" height="37.5"/>
				</g>
			</g>
		</g>
	</g>
</g>
<g transform="matrix(1.0578,0,0,1.0578,-320.522,-386.107)">
	<g>
		<g>
			<g>
				<g>
					<defs>
						<rect id="SVGID_49_" x="213.6" y="334.1" width="887.8" height="307.7"/>
					</defs>
					<clipPath id="SVGID_50_">
						<use xlink:href="#SVGID_49_"  style="overflow:visible;"/>
					</clipPath>
					<rect x="533.2" y="558.5" class="st33" width="122.3" height="37.5"/>
				</g>
			</g>
		</g>
	</g>
</g>
<g transform="matrix(1.0578,0,0,1.0578,-320.522,-386.107)">
	<g>
		<g>
			<g>
				<g>
					<defs>
						<rect id="SVGID_51_" x="213.6" y="335" width="887.8" height="307.7"/>
					</defs>
					<clipPath id="SVGID_52_">
						<use xlink:href="#SVGID_51_"  style="overflow:visible;"/>
					</clipPath>
					<g class="st34">
						<text transform="matrix(0.9454 0 0 0.9454 568.5666 581.5815)" class="st9 st16">计算节点</text>
					</g>
				</g>
			</g>
		</g>
		<g>
			<g>
				<g>
					<defs>
						<rect id="SVGID_53_" x="213.6" y="335" width="887.8" height="307.7"/>
					</defs>
					<clipPath id="SVGID_54_">
						<use xlink:href="#SVGID_53_"  style="overflow:visible;"/>
					</clipPath>
					<g class="st35">
						<text transform="matrix(0.9454 0 0 0.9454 398.3813 487.1962)" class="st9 st16">浏览器访问</text>
					</g>
				</g>
			</g>
		</g>
	</g>
	<g>
		<g>
			<g>
				<g>
					<defs>
						<rect id="SVGID_55_" x="213.6" y="335" width="887.8" height="307.7"/>
					</defs>
					<clipPath id="SVGID_56_">
						<use xlink:href="#SVGID_55_"  style="overflow:visible;"/>
					</clipPath>
					<rect x="533.2" y="559.4" class="st36" width="122.3" height="37.5"/>
				</g>
			</g>
		</g>
	</g>
</g>
<g transform="matrix(1.0578,0,0,1.0578,-320.522,-386.107)">
	<g>
		<g>
			<g>
				<g>
					<defs>
						<rect id="SVGID_57_" x="213.6" y="334.1" width="887.8" height="307.7"/>
					</defs>
					<clipPath id="SVGID_58_">
						<use xlink:href="#SVGID_57_"  style="overflow:visible;"/>
					</clipPath>
					<rect x="874.5" y="558.5" class="st37" width="122.3" height="37.5"/>
				</g>
			</g>
		</g>
	</g>
</g>
<g transform="matrix(1.0578,0,0,1.0578,-320.522,-386.107)">
	<g>
		<g>
			<g>
				<g>
					<defs>
						<rect id="SVGID_59_" x="213.6" y="334.1" width="887.8" height="307.7"/>
					</defs>
					<clipPath id="SVGID_60_">
						<use xlink:href="#SVGID_59_"  style="overflow:visible;"/>
					</clipPath>
					<g class="st38">
						<text transform="matrix(0.9454 0 0 0.9454 911.5881 582.2158)" class="st9 st16">计算节点</text>
					</g>
				</g>
			</g>
		</g>
	</g>
	<g>
		<g>
			<g>
				<g>
					<defs>
						<rect id="SVGID_61_" x="213.6" y="334.1" width="887.8" height="307.7"/>
					</defs>
					<clipPath id="SVGID_62_">
						<use xlink:href="#SVGID_61_"  style="overflow:visible;"/>
					</clipPath>
					<rect x="874.5" y="558.5" class="st39" width="122.3" height="37.5"/>
				</g>
			</g>
		</g>
	</g>
</g>
<g transform="matrix(1.0578,0,0,1.0578,-320.522,-386.107)">
	<g>
		<g>
			<g>
				<g>
					<defs>
						<rect id="SVGID_63_" x="213.6" y="334.1" width="887.8" height="307.7"/>
					</defs>
					<clipPath id="SVGID_64_">
						<use xlink:href="#SVGID_63_"  style="overflow:visible;"/>
					</clipPath>
					<rect x="703.9" y="558.5" class="st40" width="122.3" height="37.5"/>
				</g>
			</g>
		</g>
	</g>
</g>
<g>
	<g>
		<g>
			<g>
				<defs>
					<rect id="SVGID_65_" y="0" width="750" height="260"/>
				</defs>
				<clipPath id="SVGID_66_">
					<use xlink:href="#SVGID_65_"  style="overflow:visible;"/>
				</clipPath>
				<g class="st41">
					<text transform="matrix(1 0 0 1 461.903 229.0883)" class="st9 st10">计算节点</text>
				</g>
			</g>
		</g>
	</g>
</g>
<g>
	<g>
		<g>
			<g>
				<defs>
					<rect id="SVGID_67_" y="0" width="750" height="260"/>
				</defs>
				<clipPath id="SVGID_68_">
					<use xlink:href="#SVGID_67_"  style="overflow:visible;"/>
				</clipPath>
				<rect x="424" y="204.6" class="st42" width="129.3" height="39.7"/>
			</g>
		</g>
	</g>
</g>
<rect y="0" class="st8" width="750" height="260"/>
<path class="st11" d="M68.1,42.3h121.6"/>
<rect y="0" class="st8" width="750" height="260"/>
<path d="M197.2,41.8l-12.9-4.6l3.4,5.1l-2.9,5.4L197.2,41.8z"/>
<g>
	<g>
		<g>
			<g>
				<defs>
					<rect id="SVGID_69_" y="0" width="750" height="260"/>
				</defs>
				<clipPath id="SVGID_70_">
					<use xlink:href="#SVGID_69_"  style="overflow:visible;"/>
				</clipPath>
				<rect x="122.9" y="52.2" class="st43" width="25.5" height="19"/>
			</g>
		</g>
	</g>
</g>
<rect y="0" class="st8" width="750" height="260"/>
<rect y="1" class="st8" width="750" height="260"/>
<path class="st11" d="M68.1,136h126.8"/>
<rect y="0" class="st8" width="750" height="260"/>
<path class="st11" d="M326.3,134.5l86.4-42.1"/>
<g>
	<g>
		<g>
			<g>
				<defs>
					<rect id="SVGID_71_" y="0" width="750" height="260"/>
				</defs>
				<clipPath id="SVGID_72_">
					<use xlink:href="#SVGID_71_"  style="overflow:visible;"/>
				</clipPath>
				<path class="st44" d="M412.5,92.1l-13.7,0.8l5.2,3.4l-0.5,6.1L412.5,92.1z"/>
			</g>
		</g>
	</g>
</g>
<g>
	<g>
		<g>
			<g>
				<defs>
					<rect id="SVGID_73_" y="0" width="750" height="260"/>
				</defs>
				<clipPath id="SVGID_74_">
					<use xlink:href="#SVGID_73_"  style="overflow:visible;"/>
				</clipPath>
				<rect x="357.1" y="80.4" class="st45" width="30.4" height="19"/>
			</g>
		</g>
	</g>
</g>
<g>
	<g>
		<g>
			<g>
				<defs>
					<rect id="SVGID_75_" y="0" width="750" height="260"/>
				</defs>
				<clipPath id="SVGID_76_">
					<use xlink:href="#SVGID_75_"  style="overflow:visible;"/>
				</clipPath>
				<g class="st46">
					<text transform="matrix(1 0 0 1 354.5459 62.456)" class="st4 st10">Jobs</text>
				</g>
			</g>
		</g>
	</g>
	<g>
		<g>
			<g>
				<defs>
					<rect id="SVGID_77_" y="0" width="750" height="260"/>
				</defs>
				<clipPath id="SVGID_78_">
					<use xlink:href="#SVGID_77_"  style="overflow:visible;"/>
				</clipPath>
				<g class="st47">
					<text transform="matrix(1 0 0 1 353.097 117.0958)" class="st4 st10">Jobs</text>
				</g>
			</g>
		</g>
	</g>
</g>
<g>
	<g>
		<g>
			<g>
				<defs>
					<rect id="SVGID_79_" y="0" width="750" height="260"/>
				</defs>
				<clipPath id="SVGID_80_">
					<use xlink:href="#SVGID_79_"  style="overflow:visible;"/>
				</clipPath>
				<path class="st48" d="M446.4,109.7l-112.7,73.7"/>
			</g>
		</g>
	</g>
</g>
<g>
	<g>
		<g>
			<g>
				<defs>
					<rect id="SVGID_81_" y="0" width="750" height="260"/>
				</defs>
				<clipPath id="SVGID_82_">
					<use xlink:href="#SVGID_81_"  style="overflow:visible;"/>
				</clipPath>
				<path class="st49" d="M326.7,188l13.5-2.5l-5.5-2.7l-0.2-6.2L326.7,188z"/>
			</g>
		</g>
	</g>
</g>
<g>
	<g>
		<g>
			<g>
				<defs>
					<rect id="SVGID_83_" y="0" width="750" height="260"/>
				</defs>
				<clipPath id="SVGID_84_">
					<use xlink:href="#SVGID_83_"  style="overflow:visible;"/>
				</clipPath>
				<path class="st50" d="M507.1,109.7l112.7,73.7"/>
			</g>
		</g>
	</g>
</g>
<g>
	<g>
		<g>
			<g>
				<defs>
					<rect id="SVGID_85_" y="0" width="750" height="260"/>
				</defs>
				<clipPath id="SVGID_86_">
					<use xlink:href="#SVGID_85_"  style="overflow:visible;"/>
				</clipPath>
				<path class="st51" d="M626.9,188l-7.7-11.4l-0.2,6.2l-5.5,2.7L626.9,188z"/>
			</g>
		</g>
	</g>
</g>
<g>
	<g>
		<g>
			<g>
				<defs>
					<rect id="SVGID_87_" y="0" width="750" height="260"/>
				</defs>
				<clipPath id="SVGID_88_">
					<use xlink:href="#SVGID_87_"  style="overflow:visible;"/>
				</clipPath>
				<path class="st52" d="M476.8,109.7v69.8"/>
			</g>
		</g>
	</g>
	<g>
		<g>
			<g>
				<defs>
					<rect id="SVGID_89_" y="0" width="750" height="260"/>
				</defs>
				<clipPath id="SVGID_90_">
					<use xlink:href="#SVGID_89_"  style="overflow:visible;"/>
				</clipPath>
				<path class="st53" d="M261.6,67.7v48.8"/>
			</g>
		</g>
	</g>
</g>
<g>
	<g>
		<g>
			<g>
				<defs>
					<rect id="SVGID_91_" y="0" width="750" height="260"/>
				</defs>
				<clipPath id="SVGID_92_">
					<use xlink:href="#SVGID_91_"  style="overflow:visible;"/>
				</clipPath>
				<path class="st54" d="M476.8,188l5.3-12.7l-5.3,3.2l-5.3-3.2L476.8,188z"/>
			</g>
		</g>
	</g>
	<g>
		<g>
			<g>
				<defs>
					<rect id="SVGID_93_" y="0" width="750" height="260"/>
				</defs>
				<clipPath id="SVGID_94_">
					<use xlink:href="#SVGID_93_"  style="overflow:visible;"/>
				</clipPath>
				<path class="st55" d="M261.6,60.7l-5.3,12.7l5.3-3.2l5.3,3.2L261.6,60.7z"/>
			</g>
		</g>
	</g>
</g>
<text transform="matrix(1 0 0 1 216.9349 140.4995)" class="st9 st10">Studio 可视化平台</text>
<rect x="196.9" y="116.5" class="st11" width="129.3" height="39.7"/>
<path d="M197.3,135.9l-12.9-4.6l3.4,5.1l-2.9,5.4L197.3,135.9z"/>
<path d="M412.6,84.3L403.5,74l0.5,6.1l-5.2,3.4L412.6,84.3z"/>
<path class="st11" d="M326,41.5l86.4,42.1"/>
<text transform="matrix(1 0 0 1 419.8375 94.5517)" class="st9 st10">Slurm 作业调度系统</text>
<text transform="matrix(1 0 0 1 102.9369 37.188)" class="st9 st10">ssh 连接</text>
<text transform="matrix(1 0 0 1 84.8764 56.6019)" class="st9 st56">login.hpc.sjtu.edu.cn</text>
<text transform="matrix(1 0 0 1 71.1483 149.9929)" class="st9 st56">https://studio.hpc.sjtu.edu.cn</text>
<g>
	<g id="svg1.layer1_1_">
		<ellipse id="svg1.circle3045_1_" class="st57" cx="42.8" cy="35.8" rx="14.1" ry="14.2"/>
		<path id="svg1.path3047_1_" class="st57" d="M19.1,66.9c4.7-13.2,19-20.1,32.1-15.4c7.1,2.6,12.8,8.2,15.3,15.4"/>
		<rect id="svg1.rect4325_1_" x="16.9" y="17.4" class="st58" width="51.2" height="50"/>
	</g>
</g>
<g>
	<g id="svg1.layer1_2_">
		<ellipse id="svg1.circle3045_2_" class="st57" cx="43.1" cy="129.9" rx="14.1" ry="14.2"/>
		<path id="svg1.path3047_2_" class="st57" d="M19.4,161c4.7-13.2,19-20.1,32.1-15.4c7.1,2.6,12.8,8.2,15.3,15.4"/>
		<rect id="svg1.rect4325_2_" x="17.2" y="111.5" class="st58" width="51.2" height="50"/>
	</g>
</g>
<g id="_x33_mebmm_1_">
	
		<image style="overflow:visible;enable-background:new    ;" width="254" height="238" id="_x33_mebmm_2_" xlink:href="D405F14E90FD649A.jpg"  transform="matrix(5.758432e-02 0 0 5.758432e-02 84.6498 117.7341)">
	</image>
</g>
<g id="PQn5pt.tif">
	
		<image style="overflow:visible;enable-background:new    ;" width="395" height="342" id="Layer_0_1_" xlink:href="D405F14E90FD649D.png"  transform="matrix(3.602037e-02 0 0 3.602063e-02 211.3577 34.3405)">
	</image>
</g>
<rect x="211.1" y="33.4" class="st59" width="1.3" height="5"/>
<rect x="211.6" y="42.4" class="st59" width="0.7" height="4.9"/>
<g id="_x31_0xGoN.tif">
	
		<image style="overflow:visible;enable-background:new    ;" width="399" height="373" id="Layer_0_2_" xlink:href="D405F14E90FD649E.png"  transform="matrix(3.408169e-02 0 0 3.408169e-02 264.4677 217.3934)">
	</image>
</g>
<g id="_x31_0xGoN.tif_1_">
	
		<image style="overflow:visible;enable-background:new    ;" width="373" height="373" id="Layer_0_3_" xlink:href="D405F14E90FD649C.png"  transform="matrix(3.528952e-02 0 0 3.528952e-02 445.2376 217.1681)">
	</image>
</g>
<g id="_x31_0xGoN.tif_2_">
	
		<image style="overflow:visible;enable-background:new    ;" width="399" height="346" id="Layer_0_4_" xlink:href="D405F14E90FD6494.png"  transform="matrix(3.524781e-02 0 0 3.524781e-02 626.4431 219.256)">
	</image>
</g>
<g id="xzCzbJ.tif">
	
		<image style="overflow:visible;enable-background:new    ;" width="199" height="153" id="Layer_0_6_" xlink:href="D405F14E90FD6491.png"  transform="matrix(6.294382e-02 0 0 5.854306e-02 201.2559 131.5215)">
	</image>
</g>
<g id="ALqLP7.tif">
</g>
<g id="sNVnWu.tif">
	
		<image style="overflow:visible;enable-background:new    ;" width="252" height="213" id="Layer_0_5_" xlink:href="D405F14E90FD6493.png"  transform="matrix(4.772339e-02 0 0 4.663764e-02 86.2384 27.9517)">
	</image>
</g>
<g id="_x36_9dJo1.tif">
	
		<image style="overflow:visible;" width="382" height="194" id="Layer_0_7_" xlink:href="D405F14E90FD6490.png"  transform="matrix(0.165 0 0 0.1428 445.597 33.3897)">
	</image>
</g>
</svg>
